# xmcd
#
# Track frame offsets:
#	150
#	12600
#	38335
#	59351
#	75272
#	91351
#	114681
#	139249
#	158716
#	174309
#	194259
#	215021
#	242696
#
# Disc length: 3455 seconds
#
# Revision: 0
# Processed by: cddbd v1.5.2PL0 Copyright (c) Steve Scherf et al.
# Submitted via: EasyCDDAExtractor 12.0.1.1
#
DISCID=a60d7d0d
DTITLE=Blues Therapy - Drink That Wine!
DYEAR=2010
DGENRE=
TTITLE0=Drink That Wine
TTITLE1=Can't Take It With You
TTITLE2=Halo
TTITLE3=Molly May
TTITLE4=Still Give Me The Blues
TTITLE5=Hurricane
TTITLE6=Where Were You
TTITLE7=Dixie Doodle
TTITLE8=Set Me Free
TTITLE9=Cry Of The Wolf
TTITLE10=Misty Morning Sun
TTITLE11=Cogs
TTITLE12=Schitzo Smitzo
EXTD=
EXTT0=
EXTT1=
EXTT2=
EXTT3=
EXTT4=
EXTT5=
EXTT6=
EXTT7=
EXTT8=
EXTT9=
EXTT10=
EXTT11=
EXTT12=
PLAYORDER=
